<svg width="50" height="50" viewBox="0 0 50 50" fill="none" xmlns="http://www.w3.org/2000/svg">
<circle cx="25" cy="25" r="25" fill="#10D4AF"/>
<path d="M25 4C13.45 4 4 13.45 4 25C4 36.55 13.45 46 25 46C36.55 46 46 36.55 46 25C46 13.45 36.55 4 25 4ZM25 10.3C28.57 10.3 31.3 13.03 31.3 16.6C31.3 20.17 28.57 22.9 25 22.9C21.43 22.9 18.7 20.17 18.7 16.6C18.7 13.03 21.43 10.3 25 10.3ZM25 40.12C19.75 40.12 15.13 37.3901 12.4 33.4C12.4 29.2 20.8 26.89 25 26.89C29.2 26.89 37.6 29.2 37.6 33.4C34.87 37.39 30.25 40.12 25 40.12Z" fill="white"/>
</svg>
