<svg width="50" height="50" viewBox="0 0 50 50" fill="none" xmlns="http://www.w3.org/2000/svg">
<circle cx="25" cy="25" r="25" fill="white"/>
<path d="M37.6047 35.6819L31.1952 29.246C32.8432 27.3546 33.7462 24.9749 33.7462 22.4975C33.7462 16.7093 28.8684 12 22.8731 12C16.8778 12 12 16.7093 12 22.4975C12 28.2857 16.8778 32.995 22.8731 32.995C25.1238 32.995 27.2686 32.3396 29.1024 31.0954L35.5605 37.5801C35.8305 37.8508 36.1936 38 36.5826 38C36.9509 38 37.3002 37.8644 37.5654 37.618C38.129 37.0945 38.1469 36.2264 37.6047 35.6819ZM22.8731 14.7385C27.3046 14.7385 30.9097 18.2191 30.9097 22.4975C30.9097 26.7759 27.3046 30.2565 22.8731 30.2565C18.4416 30.2565 14.8365 26.7759 14.8365 22.4975C14.8365 18.2191 18.4416 14.7385 22.8731 14.7385Z" fill="#10D4AF"/>
</svg>
